Coordinates
nRows=15
nColumns=24

# SIMM Motion File Header:
name Coordinates
datacolumns 24
datarows 15
otherdata 1
range 0.17999999999999999000 0.19400000000000001000
endheader
time	pelvis_tx	pelvis_ty	pelvis_tz	pelvis_tilt	pelvis_list	pelvis_rotation	hip_flexion_r	hip_adduction_r	hip_rotation_r	knee_angle_r	ankle_angle_r	subtalar_angle_r	mtp_angle_r	hip_flexion_l	hip_adduction_l	hip_rotation_l	knee_angle_l	ankle_angle_l	subtalar_angle_l	mtp_angle_l	lumbar_extension	lumbar_bending	lumbar_rotation
      0.17999999999999999000	      1.40396924933144170000	      0.85654993929010104000	     -0.23910899882129377000	     -4.26981712972140230000	     -5.94828031196585980000	      0.61367807939199637000	     18.83787517201849200000	      7.68927714073918180000	      2.92238007097550940000	    -22.22123879001437200000	      7.33719694246861740000	     -0.00000000000001001546	     -0.00000000000000584319	      5.55874614317393510000	    -11.69519622867472300000	     13.31253052300997600000	    -56.66772229847838800000	    -12.04816132382168600000	      0.00000000000000015358	      0.00000000000000136066	     -4.35443675131174680000	      3.21734180765245450000	      3.13135113919512080000
      0.18099999999999999000	      1.40547770824166700000	      0.85684846632340428000	     -0.23886066947193604000	     -4.26459079443989260000	     -5.89976596790259930000	      0.58454959527598560000	     18.64162528829914600000	      7.67517580597793710000	      3.06542101660066280000	    -22.07991421489570200000	      7.36744385670004580000	     -0.00000000000001026422	     -0.00000000000000601130	      5.75538301424202370000	    -11.63320669547884600000	     13.31314289642329700000	    -56.76608142210390200000	    -11.78470592380175800000	      0.00000000000000015293	      0.00000000000000139733	     -4.37159578571820440000	      3.13727701717749550000	      3.20130139932525730000
      0.18200000000000000000	      1.40698530670452040000	      0.85714490032655499000	     -0.23861179116160511000	     -4.26029146516963570000	     -5.85255745922763810000	      0.55440062274085822000	     18.44692728750103000000	      7.66287012062085180000	      3.20942091557979300000	    -21.93978467984461000000	      7.39824009550093550000	     -0.00000000000001050189	     -0.00000000000000619503	      5.95238965351472690000	    -11.57345401574042200000	     13.31039717169565200000	    -56.85973338058958900000	    -11.53690979312297100000	      0.00000000000000015142	      0.00000000000000144394	     -4.38765820720370940000	      3.05892121182151300000	      3.27162813349589540000
      0.18300000000000000000	      1.40849174097909000000	      0.85743849927945148000	     -0.23836217785410191000	     -4.25724627023495740000	     -5.80711712894750940000	      0.52287390023013558000	     18.25432703893121600000	      7.65299374574883020000	      3.35471426104332780000	    -21.80126732795743300000	      7.42979402392814860000	     -0.00000000000001072433	     -0.00000000000000640018	      6.14989667336124320000	    -11.51672967595144700000	     13.30310709808827200000	    -56.94701000829142100000	    -11.31030874121505600000	      0.00000000000000014868	      0.00000000000000150404	     -4.40223646948095840000	      2.98288028078553550000	      3.34245971077849370000
      0.18400000000000000000	      1.40999817525365990000	      0.85773209823234786000	     -0.23811256454659868000	     -4.25420107530027900000	     -5.76167679866738070000	      0.49134717771941294000	     18.06172679036140500000	      7.64311737087680850000	      3.50000760650686260000	    -21.66274997607025600000	      7.46134795235536250000	     -0.00000000000001094678	     -0.00000000000000660534	      6.34740369320776040000	    -11.46000533616247100000	     13.29581702448089300000	    -57.03428663599324700000	    -11.08370768930714300000	      0.00000000000000014593	      0.00000000000000156414	     -4.41681473175820740000	      2.90683934974955790000	      3.41329128806109190000
      0.18500000000000000000	      1.41150292412960070000	      0.85802051858250772000	     -0.23786469461569235000	     -4.25290850523467780000	     -5.71874351220665480000	      0.45878799581244362000	     17.87150064381394900000	      7.63609860949445720000	      3.64600605024195850000	    -21.52503520961554900000	      7.49760084093371320000	     -0.00000000000001113968	     -0.00000000000000687714	      6.54549905267065850000	    -11.40753295489134600000	     13.28172063825849100000	    -57.11036301027792900000	    -10.88564519696497300000	      0.00000000000000013195	      0.00000000000000162321	     -4.42914554978640320000	      2.83445183935777090000	      3.48332065566353370000
      0.18600000000000000000	      1.41300753107704380000	      0.85830850283921456000	     -0.23761697149564576000	     -4.25176352483175800000	     -5.67602134551157980000	      0.42614186983848473000	     17.68147442191827800000	      7.62932048957420950000	      3.79206387075407790000	    -21.38738802939412400000	      7.53424943195580890000	     -0.00000000000001133009	     -0.00000000000000715455	      6.74364395658944900000	    -11.35541863377014900000	     13.26705108809172100000	    -57.18549620404923000000	    -10.68998595500116300000	      0.00000000000000011703	      0.00000000000000168220	     -4.44128710909502540000	      2.76237198585823980000	      3.55328246867503950000
      0.18700000000000000000	      1.41451166008637070000	      0.85859431247698637000	     -0.23737153347853063000	     -4.25106209696115390000	     -5.63381652271267170000	      0.39373015708832465000	     17.49170657365075600000	      7.62277133622472910000	      3.93771057296779640000	    -21.24900680919418500000	      7.57357086281941520000	     -0.00000000000001152111	     -0.00000000000000740550	      6.94175432136558350000	    -11.30419293442711400000	     13.25019936411289300000	    -57.25616819017901100000	    -10.49938839167561600000	      0.00000000000000009878	      0.00000000000000172901	     -4.45275339976771180000	      2.69134644197691000000	      3.62210061803818070000
      0.18800000000000000000	      1.41601513536399180000	      0.85887714763480116000	     -0.23712922106322079000	     -4.25096736762331510000	     -5.59231933150161800000	      0.36163907864544043000	     17.30229213313020200000	      7.61653536715989610000	      4.08279494073348290000	    -21.10962155689994500000	      7.61654824848435300000	     -0.00000000000001171299	     -0.00000000000000762027	      7.13981744292778850000	    -11.25418270673560900000	     13.23036282649067800000	    -57.32073806227883500000	    -10.31571427659899100000	      0.00000000000000007598	      0.00000000000000175917	     -4.46329604676620840000	      2.62176300033114630000	      3.68935444523678010000
      0.18900000000000000000	      1.41751861064161310000	      0.85915998279261596000	     -0.23688690864791095000	     -4.25087263828547530000	     -5.55082214029056510000	      0.32954800020255626000	     17.11287769260964400000	      7.61029939809506310000	      4.22787930849916900000	    -20.97023630460570600000	      7.65952563414928990000	     -0.00000000000001190486	     -0.00000000000000783504	      7.33788056448999360000	    -11.20417247904410400000	     13.21052628886846500000	    -57.38530793437865200000	    -10.13204016152236500000	      0.00000000000000005317	      0.00000000000000178933	     -4.47383869376470500000	      2.55217955868538220000	      3.75660827243538000000
      0.19000000000000000000	      1.41902160898647200000	      0.85943888514452627000	     -0.23665108011282590000	     -4.25110197827705960000	     -5.50926838149802480000	      0.29879508827628809000	     16.92278229143707300000	      7.60281198139789180000	      4.37128874546808440000	    -20.82781348809814800000	      7.70650300103581110000	     -0.00000000000001211721	     -0.00000000000000797746	      7.53531360403371850000	    -11.15412439273277600000	     13.18770137682643600000	    -57.44225326359233500000	     -9.94529959101960160000	      0.00000000000000001943	      0.00000000000000186577	     -4.48361872080184920000	      2.48357856654753380000	      3.82065504135075830000
      0.19100000000000000000	      1.42052456716851760000	      0.85971745631233265000	     -0.23641579758944711000	     -4.25135860835442170000	     -5.46770985911321890000	      0.26815486420940393000	     16.73262954613187900000	      7.59521917949412110000	      4.51455713544190470000	    -20.68513487636280200000	      7.75381720890276330000	     -0.00000000000001233128	     -0.00000000000000811380	      7.73269358396713540000	    -11.10407311832282500000	     13.16462481186062800000	    -57.49855652516648500000	     -9.75830079234151350000	     -0.00000000000000001524	      0.00000000000000194610	     -4.49333452712363360000	      2.41506030711195010000	      3.88443174183416810000
      0.19200000000000000000	      1.42202733401674660000	      0.85999196710894854000	     -0.23618888388043219000	     -4.25152100559650850000	     -5.42529349145156910000	      0.23940456376208852000	     16.54094494045777000000	      7.58503876909180090000	      4.65560012035061100000	    -20.53817447264705700000	      7.80215792368807120000	     -0.00000000000001251155	     -0.00000000000000825392	      7.92880454667279280000	    -11.05266456811481400000	     13.13893266392807200000	    -57.54728273718153300000	     -9.55872293352289760000	     -0.00000000000000004543	      0.00000000000000202478	     -4.50270605488079840000	      2.34682108350951690000	      3.94420676662092260000
      0.19300000000000000000	      1.42353010086497590000	      0.86026647790556443000	     -0.23596197017141723000	     -4.25168340283859520000	     -5.38287712378991930000	      0.21065426331477313000	     16.34926033478366500000	      7.57485835868948150000	      4.79664310525931730000	    -20.39121406893131200000	      7.85049863847337990000	     -0.00000000000001269182	     -0.00000000000000839404	      8.12491550937845020000	    -11.00125601790680300000	     13.11324051599551800000	    -57.59600894919658000000	     -9.35914507470427990000	     -0.00000000000000007563	      0.00000000000000210346	     -4.51207758263796420000	      2.27858185990708370000	      4.00398179140767760000
      0.19400000000000001000	      1.42503275716291220000	      0.86053860952881545000	     -0.23573991911656084000	     -4.25172846152829910000	     -5.33968584302478180000	      0.18285752155461057000	     16.15677079076840900000	      7.56285268990004500000	      4.93661612953349580000	    -20.24204236509400800000	      7.89705416972472380000	     -0.00000000000001287900	     -0.00000000000000852818	      8.32012789893935430000	    -10.94866946343604400000	     13.08594359609793900000	    -57.64055052697011700000	     -9.15103621741348050000	     -0.00000000000000010805	      0.00000000000000219939	     -4.52134696311413280000	      2.21021083073352730000	      4.06156629441678700000
